<svg width="280" height="268" viewBox="0 0 280 268" fill="none" xmlns="http://www.w3.org/2000/svg">
<path fill-rule="evenodd" clip-rule="evenodd" d="M28.166 2.04664C24.958 3.14964 20.637 5.12364 18.565 6.43164C12.816 10.0606 5.85899 18.6506 2.77399 25.9276L0 32.4726V133.473V234.473L2.634 240.725C7.54 252.365 15.108 259.933 26.748 264.839L33 267.473L135.5 267.756C196.842 267.926 240.467 267.658 244.144 267.089C256.399 265.193 269.123 256.221 274.219 245.881C279.694 234.772 279.58 237.367 279.278 130.838L279 32.4726L276.136 25.7046C273.033 18.3706 266.329 10.1526 260.39 6.40364C258.337 5.10764 253.936 3.13064 250.61 2.00964C244.676 0.0106438 242.603 -0.0263616 139.282 0.00563841C36.533 0.0386384 33.86 0.0876387 28.166 2.04664ZM143.229 15.9366C154.594 21.0956 154.194 35.8296 142.53 41.7226C138.14 43.9406 137.514 43.9726 99.038 43.9946C56.094 44.0186 55.56 44.0876 49.3 50.4166C43.955 55.8186 43.358 59.3616 43.694 83.6796L44 105.807L47.014 110.092C52.109 117.336 55.097 118.474 69 118.467C87.285 118.457 88.15 117.941 114.817 91.1406C126.676 79.2236 137.581 68.1226 139.052 66.4726C140.522 64.8226 150.296 54.7996 160.771 44.1986C188.672 15.9636 191.668 14.4726 220.5 14.4726C237.619 14.4726 239.367 14.6416 243.92 16.7416C252.265 20.5896 257.051 25.2846 261.214 33.7056L265 41.3646V67.4186C265 93.0166 264.959 93.5386 262.653 97.2466C256.832 106.611 243.621 106.445 238.035 96.9376C236.252 93.9016 235.938 91.2236 235.5 75.3046L235 57.1366L231.987 52.8046C225.567 43.5756 214.106 41.3736 202.41 47.1236C195.625 50.4586 189.263 56.5966 147.405 100.187C127.327 121.096 125.556 123.842 125.522 134.109C125.488 144.291 127.864 147.73 152.5 173.155C199.729 221.897 198.493 220.819 209.866 223.204C216.574 224.611 223.339 222.931 228.217 218.648C234.423 213.199 234.918 211.338 235.486 191.315L236 173.156L239.097 169.315C244.863 162.161 254.035 161.308 260.089 167.362C265.191 172.464 265.78 176.488 265.302 202.973C264.883 226.181 264.842 226.551 262.059 232.707C258.645 240.26 251.767 247.032 243.718 250.765C238.196 253.327 237.399 253.416 220.486 253.354C206.539 253.304 201.855 252.928 197.486 251.51C184.234 247.207 182.127 245.459 148.156 210.566C94.625 155.583 94.626 155.584 88 152.377C82.553 149.741 80.894 149.447 70 149.196C59.025 148.943 57.658 149.116 54 151.218C51.8 152.482 48.538 155.695 46.75 158.358L43.5 163.199V184.22C43.5 197.571 43.934 206.689 44.689 209.21C46.414 214.968 53.027 221.365 58.741 222.803C61.886 223.595 75.789 223.973 101.793 223.973H140.2L144.427 227.035C154.007 233.975 153.567 245.503 143.497 251.419C140.094 253.418 138.676 253.472 90.5 253.427L41 253.382L34.332 250.165C26.223 246.254 19.561 239.236 16.304 231.175L14 225.473V133.473V41.4726L16.688 35.7376C20.425 27.7646 23.821 23.6166 29.707 19.8396C38.457 14.2256 39.67 14.1116 91.5 14.0616C136.259 14.0196 139.244 14.1276 143.229 15.9366ZM172.5 101.973C174.41 103.883 174.5 105.306 174.5 133.539C174.5 152.007 174.111 163.831 173.465 165.039C172.771 166.334 171.37 166.973 169.22 166.973C166.456 166.973 164.646 165.551 156.175 156.723C140.39 140.272 138.16 135.479 142.413 127.143C144.936 122.197 166.505 99.9316 168.75 99.9546C169.712 99.9646 171.4 100.873 172.5 101.973Z" fill="#FCFCFC"/>
</svg>
