<svg width="524" height="348" viewBox="0 0 524 348" fill="none" xmlns="http://www.w3.org/2000/svg">
<path fill-rule="evenodd" clip-rule="evenodd" d="M150.07 2.04664C146.862 3.14964 142.541 5.12364 140.469 6.43164C134.72 10.0606 127.763 18.6506 124.678 25.9276L121.904 32.4726V133.473V234.473L124.538 240.725C129.444 252.365 137.012 259.933 148.652 264.839L154.904 267.473L257.404 267.756C318.746 267.926 362.371 267.658 366.048 267.089C378.303 265.193 391.027 256.221 396.123 245.881C401.598 234.772 401.484 237.367 401.182 130.838L400.904 32.4726L398.04 25.7046C394.937 18.3706 388.233 10.1526 382.294 6.40364C380.241 5.10764 375.84 3.13064 372.514 2.00964C366.58 0.0106438 364.507 -0.0263616 261.186 0.00563841C158.437 0.0386384 155.764 0.0876387 150.07 2.04664ZM265.133 15.9366C276.498 21.0956 276.098 35.8296 264.434 41.7226C260.044 43.9406 259.418 43.9726 220.942 43.9946C177.998 44.0186 177.464 44.0876 171.204 50.4166C165.859 55.8186 165.262 59.3616 165.598 83.6796L165.904 105.807L168.918 110.092C174.013 117.336 177.001 118.474 190.904 118.467C209.189 118.457 210.054 117.941 236.721 91.1406C248.58 79.2236 259.485 68.1226 260.956 66.4726C262.426 64.8226 272.2 54.7996 282.675 44.1986C310.576 15.9636 313.572 14.4726 342.404 14.4726C359.523 14.4726 361.271 14.6416 365.824 16.7416C374.169 20.5896 378.955 25.2846 383.118 33.7056L386.904 41.3646V67.4186C386.904 93.0166 386.863 93.5386 384.557 97.2466C378.736 106.611 365.525 106.445 359.939 96.9376C358.156 93.9016 357.842 91.2236 357.404 75.3046L356.904 57.1366L353.891 52.8046C347.471 43.5756 336.01 41.3736 324.314 47.1236C317.529 50.4586 311.167 56.5966 269.309 100.187C249.231 121.096 247.46 123.842 247.426 134.109C247.392 144.291 249.768 147.73 274.404 173.155C321.633 221.897 320.397 220.819 331.77 223.204C338.478 224.611 345.243 222.931 350.121 218.648C356.327 213.199 356.822 211.338 357.39 191.315L357.904 173.156L361.001 169.315C366.767 162.161 375.939 161.308 381.993 167.362C387.095 172.464 387.684 176.488 387.206 202.973C386.787 226.181 386.746 226.551 383.963 232.707C380.549 240.26 373.671 247.032 365.622 250.765C360.1 253.327 359.303 253.416 342.39 253.354C328.443 253.304 323.759 252.928 319.39 251.51C306.138 247.207 304.031 245.459 270.06 210.566C216.529 155.583 216.53 155.584 209.904 152.377C204.457 149.741 202.798 149.447 191.904 149.196C180.929 148.943 179.562 149.116 175.904 151.218C173.704 152.482 170.442 155.695 168.654 158.358L165.404 163.199V184.22C165.404 197.571 165.838 206.689 166.593 209.21C168.318 214.968 174.931 221.365 180.645 222.803C183.79 223.595 197.693 223.973 223.697 223.973H262.104L266.331 227.035C275.911 233.975 275.471 245.503 265.401 251.419C261.998 253.418 260.58 253.472 212.404 253.427L162.904 253.382L156.236 250.165C148.127 246.254 141.465 239.236 138.208 231.175L135.904 225.473V133.473V41.4726L138.592 35.7376C142.329 27.7646 145.725 23.6166 151.611 19.8396C160.361 14.2256 161.574 14.1116 213.404 14.0616C258.163 14.0196 261.148 14.1276 265.133 15.9366ZM294.404 101.973C296.314 103.883 296.404 105.306 296.404 133.539C296.404 152.007 296.015 163.831 295.369 165.039C294.675 166.334 293.274 166.973 291.124 166.973C288.36 166.973 286.55 165.551 278.079 156.723C262.294 140.272 260.064 135.479 264.317 127.143C266.84 122.197 288.409 99.9316 290.654 99.9546C291.616 99.9646 293.304 100.873 294.404 101.973Z" fill="#080808"/>
<path d="M9.6 347C6.57067 347 4.20267 346.211 2.496 344.632C0.832 343.011 0 340.771 0 337.912V311.096C0 308.323 0.810667 306.147 2.432 304.568C4.05333 302.989 6.31467 302.2 9.216 302.2H29.12C30.2293 302.2 31.0827 302.456 31.68 302.968C32.2773 303.437 32.576 304.141 32.576 305.08C32.576 305.976 32.2773 306.68 31.68 307.192C31.0827 307.661 30.2293 307.896 29.12 307.896H10.24C9.30133 307.896 8.576 308.195 8.064 308.792C7.552 309.389 7.296 310.2 7.296 311.224V321.272H24.256C25.3653 321.272 26.2187 321.528 26.816 322.04C27.4133 322.509 27.712 323.213 27.712 324.152C27.712 325.048 27.4133 325.752 26.816 326.264C26.2187 326.733 25.3653 326.968 24.256 326.968H7.296V337.976C7.296 339 7.552 339.811 8.064 340.408C8.576 341.005 9.30133 341.304 10.24 341.304H30.528C31.6373 341.304 32.4907 341.56 33.088 342.072C33.6853 342.541 33.984 343.245 33.984 344.184C33.984 345.08 33.6853 345.784 33.088 346.296C32.4907 346.765 31.6373 347 30.528 347H9.6Z" fill="#080808"/>
<path d="M44.4515 347.64C43.3422 347.64 42.4675 347.341 41.8275 346.744C41.1875 346.147 40.8675 345.315 40.8675 344.248V319.416C40.8675 313.827 42.5955 309.453 46.0515 306.296C49.5502 303.139 54.3502 301.56 60.4515 301.56C64.4622 301.56 67.9395 302.285 70.8835 303.736C73.8275 305.144 76.0675 307.192 77.6035 309.88C79.1822 312.568 79.9715 315.747 79.9715 319.416V344.248C79.9715 345.315 79.6515 346.147 79.0115 346.744C78.3715 347.341 77.4968 347.64 76.3875 347.64C75.2782 347.64 74.3822 347.341 73.6995 346.744C73.0595 346.104 72.7395 345.272 72.7395 344.248V319.224C72.7395 315.427 71.6728 312.504 69.5395 310.456C67.4062 308.408 64.3768 307.384 60.4515 307.384C56.5262 307.384 53.4755 308.429 51.2995 310.52C49.1662 312.568 48.0995 315.469 48.0995 319.224V344.248C48.0995 345.272 47.7582 346.104 47.0755 346.744C46.4355 347.341 45.5608 347.64 44.4515 347.64Z" fill="#080808"/>
<path d="M95.0445 347C92.5272 347 90.5218 346.403 89.0285 345.208C87.5778 343.971 86.8525 342.307 86.8525 340.216C86.8525 338.637 87.1512 337.272 87.7485 336.12C88.3885 334.925 89.5618 333.667 91.2685 332.344L116.868 312.504C117.509 311.992 117.957 311.544 118.213 311.16C118.511 310.733 118.66 310.221 118.66 309.624C118.66 308.472 117.85 307.896 116.229 307.896H91.9085C90.7992 307.896 89.8818 307.661 89.1565 307.192C88.4312 306.68 88.0685 305.976 88.0685 305.08C88.0685 304.141 88.4312 303.437 89.1565 302.968C89.8818 302.456 90.7992 302.2 91.9085 302.2H117.765C120.325 302.2 122.33 302.797 123.781 303.992C125.231 305.144 125.957 306.808 125.957 308.984C125.957 310.691 125.658 312.099 125.061 313.208C124.463 314.275 123.29 315.469 121.541 316.792L95.9405 336.696C95.3005 337.165 94.8312 337.635 94.5325 338.104C94.2765 338.531 94.1485 339.043 94.1485 339.64C94.1485 340.749 95.1512 341.304 97.1565 341.304H122.629C123.738 341.304 124.655 341.56 125.381 342.072C126.106 342.541 126.469 343.224 126.469 344.12C126.469 345.059 126.106 345.784 125.381 346.296C124.655 346.765 123.738 347 122.629 347H95.0445Z" fill="#080808"/>
<path d="M154.654 347.64C149.918 347.64 145.758 346.68 142.174 344.76C138.633 342.84 135.902 340.131 133.982 336.632C132.062 333.133 131.102 329.123 131.102 324.6C131.102 320.077 132.062 316.067 133.982 312.568C135.902 309.069 138.633 306.36 142.174 304.44C145.758 302.52 149.918 301.56 154.654 301.56C159.39 301.56 163.529 302.52 167.07 304.44C170.654 306.36 173.407 309.069 175.327 312.568C177.247 316.067 178.206 320.077 178.206 324.6C178.206 329.123 177.247 333.133 175.327 336.632C173.407 340.131 170.654 342.84 167.07 344.76C163.529 346.68 159.39 347.64 154.654 347.64ZM154.654 341.816C159.646 341.816 163.593 340.28 166.495 337.208C169.396 334.136 170.846 329.933 170.846 324.6C170.846 319.224 169.353 315.021 166.367 311.992C163.423 308.92 159.391 307.384 154.271 307.384C151.028 307.384 148.212 308.088 145.822 309.496C143.433 310.904 141.598 312.909 140.318 315.512C139.038 318.115 138.398 321.144 138.398 324.6C138.398 328.141 139.06 331.213 140.383 333.816C141.705 336.376 143.582 338.36 146.014 339.768C148.446 341.133 151.326 341.816 154.654 341.816Z" fill="#080808"/>
<path d="M224.58 347.64C219.887 347.64 215.791 346.723 212.292 344.888C208.836 343.011 206.169 340.344 204.292 336.888C202.457 333.432 201.54 329.357 201.54 324.664C201.54 319.971 202.457 315.896 204.292 312.44C206.169 308.941 208.836 306.253 212.292 304.376C215.748 302.499 219.823 301.56 224.516 301.56C228.356 301.56 231.919 302.221 235.204 303.544C238.489 304.867 240.964 306.659 242.628 308.92C243.097 309.603 243.332 310.221 243.332 310.776C243.332 311.715 242.841 312.547 241.86 313.272C241.305 313.613 240.729 313.784 240.132 313.784C239.577 313.784 239.023 313.656 238.468 313.4C237.956 313.144 237.508 312.803 237.124 312.376C235.716 310.669 233.967 309.411 231.876 308.6C229.828 307.789 227.375 307.384 224.516 307.384C219.609 307.384 215.769 308.92 212.996 311.992C210.265 315.021 208.9 319.245 208.9 324.664C208.9 329.997 210.287 334.2 213.06 337.272C215.833 340.301 219.673 341.816 224.58 341.816C230.383 341.816 234.841 340.152 237.956 336.824C238.98 335.8 240.025 335.288 241.092 335.288C241.775 335.288 242.393 335.501 242.948 335.928C243.801 336.653 244.228 337.443 244.228 338.296C244.228 339.021 243.972 339.704 243.46 340.344C241.625 342.605 239.044 344.397 235.716 345.72C232.388 347 228.676 347.64 224.58 347.64Z" fill="#080808"/>
<path d="M273.967 347.64C269.231 347.64 265.071 346.68 261.487 344.76C257.946 342.84 255.215 340.131 253.295 336.632C251.375 333.133 250.415 329.123 250.415 324.6C250.415 320.077 251.375 316.067 253.295 312.568C255.215 309.069 257.946 306.36 261.487 304.44C265.071 302.52 269.231 301.56 273.967 301.56C278.703 301.56 282.842 302.52 286.383 304.44C289.967 306.36 292.719 309.069 294.639 312.568C296.559 316.067 297.519 320.077 297.519 324.6C297.519 329.123 296.559 333.133 294.639 336.632C292.719 340.131 289.967 342.84 286.383 344.76C282.842 346.68 278.703 347.64 273.967 347.64ZM273.967 341.816C278.959 341.816 282.906 340.28 285.807 337.208C288.708 334.136 290.159 329.933 290.159 324.6C290.159 319.224 288.666 315.021 285.679 311.992C282.735 308.92 278.703 307.384 273.583 307.384C270.34 307.384 267.524 308.088 265.135 309.496C262.746 310.904 260.911 312.909 259.631 315.512C258.351 318.115 257.711 321.144 257.711 324.6C257.711 328.141 258.372 331.213 259.695 333.816C261.018 336.376 262.895 338.36 265.327 339.768C267.759 341.133 270.639 341.816 273.967 341.816Z" fill="#080808"/>
<path d="M323.823 347.64C319.898 347.64 316.464 346.851 313.52 345.272C310.576 343.693 308.314 341.432 306.736 338.488C305.157 335.544 304.367 332.067 304.367 328.056V304.952C304.367 303.885 304.688 303.053 305.328 302.456C305.968 301.859 306.842 301.56 307.952 301.56C309.061 301.56 309.936 301.88 310.576 302.52C311.258 303.117 311.599 303.928 311.599 304.952V328.248C311.599 332.6 312.666 335.949 314.799 338.296C316.975 340.643 320.048 341.816 324.016 341.816C327.984 341.816 331.056 340.643 333.232 338.296C335.408 335.907 336.496 332.557 336.496 328.248V304.952C336.496 303.928 336.816 303.117 337.456 302.52C338.138 301.88 339.034 301.56 340.143 301.56C341.253 301.56 342.128 301.859 342.768 302.456C343.45 303.053 343.792 303.885 343.792 304.952V328.056C343.792 331.939 342.96 335.373 341.296 338.36C339.674 341.304 337.349 343.587 334.319 345.208C331.333 346.829 327.834 347.64 323.823 347.64Z" fill="#080808"/>
<path d="M369.863 347.64C368.754 347.64 367.858 347.341 367.176 346.744C366.536 346.147 366.216 345.315 366.216 344.248V307.896H353.095C351.986 307.896 351.133 307.661 350.535 307.192C349.938 306.68 349.639 305.976 349.639 305.08C349.639 304.141 349.938 303.437 350.535 302.968C351.133 302.456 351.986 302.2 353.095 302.2H386.632C387.741 302.2 388.594 302.456 389.191 302.968C389.831 303.437 390.151 304.141 390.151 305.08C390.151 305.976 389.831 306.68 389.191 307.192C388.594 307.661 387.741 307.896 386.632 307.896H373.512V344.248C373.512 345.272 373.17 346.104 372.487 346.744C371.847 347.341 370.973 347.64 369.863 347.64Z" fill="#080808"/>
<path d="M405.85 347C402.821 347 400.453 346.211 398.746 344.632C397.082 343.011 396.25 340.771 396.25 337.912V311.096C396.25 308.323 397.061 306.147 398.682 304.568C400.303 302.989 402.565 302.2 405.466 302.2H425.37C426.479 302.2 427.333 302.456 427.93 302.968C428.527 303.437 428.826 304.141 428.826 305.08C428.826 305.976 428.527 306.68 427.93 307.192C427.333 307.661 426.479 307.896 425.37 307.896H406.49C405.551 307.896 404.826 308.195 404.314 308.792C403.802 309.389 403.546 310.2 403.546 311.224V321.272H420.506C421.615 321.272 422.469 321.528 423.066 322.04C423.663 322.509 423.962 323.213 423.962 324.152C423.962 325.048 423.663 325.752 423.066 326.264C422.469 326.733 421.615 326.968 420.506 326.968H403.546V337.976C403.546 339 403.802 339.811 404.314 340.408C404.826 341.005 405.551 341.304 406.49 341.304H426.778C427.887 341.304 428.741 341.56 429.338 342.072C429.935 342.541 430.234 343.245 430.234 344.184C430.234 345.08 429.935 345.784 429.338 346.296C428.741 346.765 427.887 347 426.778 347H405.85Z" fill="#080808"/>
<path d="M440.702 347.576C439.592 347.576 438.718 347.277 438.078 346.68C437.438 346.083 437.117 345.251 437.117 344.184V320.888C437.117 314.829 438.846 310.093 442.302 306.68C445.758 303.267 450.558 301.56 456.702 301.56C460.712 301.56 464.19 302.349 467.134 303.928C470.078 305.464 472.318 307.683 473.854 310.584C475.432 313.485 476.221 316.92 476.221 320.888V344.184C476.221 345.251 475.902 346.083 475.262 346.68C474.622 347.277 473.747 347.576 472.638 347.576C471.528 347.576 470.632 347.277 469.949 346.68C469.267 346.04 468.926 345.208 468.926 344.184V332.408H444.414V344.184C444.414 345.208 444.072 346.04 443.389 346.68C442.707 347.277 441.811 347.576 440.702 347.576ZM468.926 326.712V320.696C468.926 316.344 467.88 313.037 465.789 310.776C463.741 308.515 460.712 307.384 456.702 307.384C452.648 307.384 449.576 308.515 447.486 310.776C445.438 312.995 444.414 316.301 444.414 320.696V326.712H468.926Z" fill="#080808"/>
<path d="M503.198 347.64C499.273 347.64 495.839 346.851 492.895 345.272C489.951 343.693 487.689 341.432 486.111 338.488C484.532 335.544 483.742 332.067 483.742 328.056V304.952C483.742 303.885 484.063 303.053 484.703 302.456C485.343 301.859 486.217 301.56 487.327 301.56C488.436 301.56 489.311 301.88 489.951 302.52C490.633 303.117 490.974 303.928 490.974 304.952V328.248C490.974 332.6 492.041 335.949 494.174 338.296C496.35 340.643 499.423 341.816 503.391 341.816C507.359 341.816 510.431 340.643 512.607 338.296C514.783 335.907 515.87 332.557 515.87 328.248V304.952C515.87 303.928 516.191 303.117 516.831 302.52C517.513 301.88 518.409 301.56 519.518 301.56C520.628 301.56 521.503 301.859 522.143 302.456C522.825 303.053 523.167 303.885 523.167 304.952V328.056C523.167 331.939 522.335 335.373 520.671 338.36C519.049 341.304 516.724 343.587 513.695 345.208C510.708 346.829 507.209 347.64 503.198 347.64Z" fill="#080808"/>
</svg>
